{
  "accessors": [
    {
      "bufferView": 2,
      "componentType": 5126,
      "count": 2379,
      "max": [
        0.767703652381897,
        0.8533160090446472,
        0.6830713152885437
      ],
      "min": [
        -0.767703652381897,
        -0.9128676652908325,
        -0.3613438606262207
      ],
      "type": "VEC3"
    },
    {
      "bufferView": 2,
      "byteOffset": 28548,
      "componentType": 5126,
      "count": 2379,
      "max": [
        0.9993097186088562,
        0.9869042038917542,
        0.9999995827674866
      ],
      "min": [
        -0.9993097186088562,
        -0.9998983144760132,
        -0.9998986124992371
      ],
      "type": "VEC3"
    },
    {
      "bufferView": 3,
      "componentType": 5126,
      "count": 2379,
      "max": [
        0.9999738335609436,
        0.9997304677963257,
        0.9998982548713684,
        1.0
      ],
      "min": [
        -0.9999738335609436,
        -0.9999992847442627,
        -0.9996650815010071,
        -1.0
      ],
      "type": "VEC4"
    },
    {
      "bufferView": 1,
      "componentType": 5126,
      "count": 2379,
      "max": [
        1.9921875,
        0.9857245683670044
      ],
      "min": [
        0.0078125,
        0.0078125
      ],
      "type": "VEC2"
    },
    {
      "bufferView": 0,
      "componentType": 5125,
      "count": 10212,
      "type": "SCALAR"
    },
    {
      "bufferView": 2,
      "byteOffset": 57096,
      "componentType": 5126,
      "count": 69,
      "max": [
        0.5418099761009216,
        -0.189144566655159,
        0.45500388741493225
      ],
      "min": [
        0.29900699853897095,
        -0.4512210190296173,
        0.289459764957428
      ],
      "type": "VEC3"
    },
    {
      "bufferView": 2,
      "byteOffset": 57924,
      "componentType": 5126,
      "count": 69,
      "max": [
        0.9961920380592346,
        0.6193211674690247,
        0.9994007349014282
      ],
      "min": [
        -0.9573020935058594,
        -0.9981309175491333,
        -0.867172360420227
      ],
      "type": "VEC3"
    },
    {
      "bufferView": 3,
      "byteOffset": 38064,
      "componentType": 5126,
      "count": 69,
      "max": [
        0.9963975548744202,
        0.8823630809783936,
        0.7893857359886169,
        1.0
      ],
      "min": [
        -0.550927996635437,
        -0.9755692481994629,
        -0.28296688199043274,
        1.0
      ],
      "type": "VEC4"
    },
    {
      "bufferView": 1,
      "byteOffset": 19032,
      "componentType": 5126,
      "count": 69,
      "max": [
        0.7826707363128662,
        0.9418632388114929
      ],
      "min": [
        0.674980878829956,
        0.7755089402198792
      ],
      "type": "VEC2"
    },
    {
      "bufferView": 0,
      "byteOffset": 40848,
      "componentType": 5125,
      "count": 306,
      "type": "SCALAR"
    },
    {
      "bufferView": 2,
      "byteOffset": 58752,
      "componentType": 5126,
      "count": 69,
      "max": [
        -0.29900699853897095,
        -0.189144566655159,
        0.45500388741493225
      ],
      "min": [
        -0.5418099761009216,
        -0.4512210190296173,
        0.289459764957428
      ],
      "type": "VEC3"
    },
    {
      "bufferView": 2,
      "byteOffset": 59580,
      "componentType": 5126,
      "count": 69,
      "max": [
        0.9573020935058594,
        0.6193212270736694,
        0.999400794506073
      ],
      "min": [
        -0.9961920380592346,
        -0.9981309175491333,
        -0.8671722412109375
      ],
      "type": "VEC3"
    },
    {
      "bufferView": 3,
      "byteOffset": 39168,
      "componentType": 5126,
      "count": 69,
      "max": [
        0.550927996635437,
        0.8823629021644592,
        0.7893858551979065,
        -1.0
      ],
      "min": [
        -0.9963976144790649,
        -0.9755692481994629,
        -0.2829677164554596,
        -1.0
      ],
      "type": "VEC4"
    },
    {
      "bufferView": 1,
      "byteOffset": 19584,
      "componentType": 5126,
      "count": 69,
      "max": [
        1.7826707363128662,
        0.9418632388114929
      ],
      "min": [
        1.674980878829956,
        0.7755089402198792
      ],
      "type": "VEC2"
    },
    {
      "bufferView": 0,
      "byteOffset": 42072,
      "componentType": 5125,
      "count": 306,
      "type": "SCALAR"
    },
    {
      "bufferView": 2,
      "byteOffset": 60408,
      "componentType": 5126,
      "count": 142,
      "max": [
        0.7002525925636292,
        1.0762012004852295,
        0.5498759746551514
      ],
      "min": [
        0.3153611719608307,
        0.35845378041267395,
        0.16791221499443054
      ],
      "type": "VEC3"
    },
    {
      "bufferView": 2,
      "byteOffset": 62112,
      "componentType": 5126,
      "count": 142,
      "max": [
        0.9892609119415283,
        0.9267376065254211,
        0.9595681428909302
      ],
      "min": [
        -0.9766632318496704,
        -0.7521581053733826,
        -0.9941850304603577
      ],
      "type": "VEC3"
    },
    {
      "bufferView": 3,
      "byteOffset": 40272,
      "componentType": 5126,
      "count": 142,
      "max": [
        0.28322532773017883,
        0.3736110031604767,
        0.9660261869430542,
        1.0
      ],
      "min": [
        -0.9888123869895935,
        -0.996275782585144,
        -0.8195055723190308,
        1.0
      ],
      "type": "VEC4"
    },
    {
      "bufferView": 1,
      "byteOffset": 20136,
      "componentType": 5126,
      "count": 142,
      "max": [
        0.6674904227256775,
        0.9170763492584229
      ],
      "min": [
        0.4037560522556305,
        0.6923660635948181
      ],
      "type": "VEC2"
    },
    {
      "bufferView": 0,
      "byteOffset": 43296,
      "componentType": 5125,
      "count": 711,
      "type": "SCALAR"
    },
    {
      "bufferView": 2,
      "byteOffset": 63816,
      "componentType": 5126,
      "count": 142,
      "max": [
        -0.3153611719608307,
        1.0762012004852295,
        0.5498759746551514
      ],
      "min": [
        -0.7002525925636292,
        0.35845378041267395,
        0.16791221499443054
      ],
      "type": "VEC3"
    },
    {
      "bufferView": 2,
      "byteOffset": 65520,
      "componentType": 5126,
      "count": 142,
      "max": [
        0.9766631722450256,
        0.9267376065254211,
        0.9595681428909302
      ],
      "min": [
        -0.9892608523368835,
        -0.7521581053733826,
        -0.9941850304603577
      ],
      "type": "VEC3"
    },
    {
      "bufferView": 3,
      "byteOffset": 42544,
      "componentType": 5126,
      "count": 142,
      "max": [
        0.9888128042221069,
        0.3736291229724884,
        0.9660256505012512,
        -1.0
      ],
      "min": [
        -0.2832251787185669,
        -0.996275782585144,
        -0.8195053935050964,
        -1.0
      ],
      "type": "VEC4"
    },
    {
      "bufferView": 1,
      "byteOffset": 21272,
      "componentType": 5126,
      "count": 142,
      "max": [
        1.6674904823303223,
        0.9170763492584229
      ],
      "min": [
        1.403756022453308,
        0.6923660635948181
      ],
      "type": "VEC2"
    },
    {
      "bufferView": 0,
      "byteOffset": 46140,
      "componentType": 5125,
      "count": 711,
      "type": "SCALAR"
    }
  ],
  "asset": {
    "extras": {
      "author": "Muru (https://sketchfab.com/muru)",
      "license": "CC-BY-4.0 (http://creativecommons.org/licenses/by/4.0/)",
      "source": "https://sketchfab.com/3d-models/mask-c5ad926ade6e44da88fa83a6c838c61c",
      "title": "Mask"
    },
    "generator": "Sketchfab-12.68.0",
    "version": "2.0"
  },
  "bufferViews": [
    {
      "buffer": 0,
      "byteLength": 48984,
      "name": "floatBufferViews",
      "target": 34963
    },
    {
      "buffer": 0,
      "byteLength": 22408,
      "byteOffset": 48984,
      "byteStride": 8,
      "name": "floatBufferViews",
      "target": 34962
    },
    {
      "buffer": 0,
      "byteLength": 67224,
      "byteOffset": 71392,
      "byteStride": 12,
      "name": "floatBufferViews",
      "target": 34962
    },
    {
      "buffer": 0,
      "byteLength": 44816,
      "byteOffset": 138616,
      "byteStride": 16,
      "name": "floatBufferViews",
      "target": 34962
    }
  ],
  "buffers": [
    {
      "byteLength": 183432,
      "uri": "scene.bin"
    }
  ],
  "images": [
    {
      "uri": "textures/lambert2_baseColor.png"
    },
    {
      "uri": "textures/lambert2_metallicRoughness.png"
    },
    {
      "uri": "textures/lambert2_normal.png"
    }
  ],
  "materials": [
    {
      "doubleSided": true,
      "name": "lambert2",
      "normalTexture": {
        "index": 2
      },
      "pbrMetallicRoughness": {
        "baseColorTexture": {
          "index": 0
        },
        "metallicRoughnessTexture": {
          "index": 1
        }
      }
    }
  ],
  "meshes": [
    {
      "name": "polySurface1_lambert2_0",
      "primitives": [
        {
          "attributes": {
            "NORMAL": 1,
            "POSITION": 0,
            "TANGENT": 2,
            "TEXCOORD_0": 3
          },
          "indices": 4,
          "material": 0,
          "mode": 4
        }
      ]
    },
    {
      "name": "polySurface2_lambert2_0",
      "primitives": [
        {
          "attributes": {
            "NORMAL": 6,
            "POSITION": 5,
            "TANGENT": 7,
            "TEXCOORD_0": 8
          },
          "indices": 9,
          "material": 0,
          "mode": 4
        }
      ]
    },
    {
      "name": "polySurface3_lambert2_0",
      "primitives": [
        {
          "attributes": {
            "NORMAL": 11,
            "POSITION": 10,
            "TANGENT": 12,
            "TEXCOORD_0": 13
          },
          "indices": 14,
          "material": 0,
          "mode": 4
        }
      ]
    },
    {
      "name": "polySurface4_lambert2_0",
      "primitives": [
        {
          "attributes": {
            "NORMAL": 16,
            "POSITION": 15,
            "TANGENT": 17,
            "TEXCOORD_0": 18
          },
          "indices": 19,
          "material": 0,
          "mode": 4
        }
      ]
    },
    {
      "name": "polySurface5_lambert2_0",
      "primitives": [
        {
          "attributes": {
            "NORMAL": 21,
            "POSITION": 20,
            "TANGENT": 22,
            "TEXCOORD_0": 23
          },
          "indices": 24,
          "material": 0,
          "mode": 4
        }
      ]
    }
  ],
  "nodes": [
    {
      "children": [
        1
      ],
      "matrix": [
        1.0,
        0.0,
        0.0,
        0.0,
        0.0,
        2.220446049250313e-16,
        -1.0,
        0.0,
        0.0,
        1.0,
        2.220446049250313e-16,
        0.0,
        0.0,
        0.0,
        0.0,
        1.0
      ],
      "name": "Sketchfab_model"
    },
    {
      "children": [
        2
      ],
      "matrix": [
        1.0,
        0.0,
        0.0,
        0.0,
        0.0,
        0.0,
        1.0,
        0.0,
        0.0,
        -1.0,
        0.0,
        0.0,
        0.0,
        0.0,
        0.0,
        1.0
      ],
      "name": "LP_mask.fbx"
    },
    {
      "children": [
        3
      ],
      "name": "RootNode"
    },
    {
      "children": [
        4,
        6,
        8,
        10,
        12
      ],
      "matrix": [
        12.754666328430176,
        0.0,
        0.0,
        0.0,
        0.0,
        12.754666328430176,
        0.0,
        0.0,
        0.0,
        0.0,
        12.754666328430176,
        0.0,
        0.0,
        -0.08277080208063126,
        0.08516715466976166,
        1.0
      ],
      "name": "LP_mask"
    },
    {
      "children": [
        5
      ],
      "matrix": [
        1.0,
        0.0,
        0.0,
        0.0,
        0.0,
        1.0,
        0.0,
        0.0,
        0.0,
        0.0,
        1.0,
        0.0,
        0.0,
        0.0,
        8.673617379884035e-19,
        1.0
      ],
      "name": "polySurface1"
    },
    {
      "mesh": 0,
      "name": "polySurface1_lambert2_0"
    },
    {
      "children": [
        7
      ],
      "name": "polySurface2"
    },
    {
      "mesh": 1,
      "name": "polySurface2_lambert2_0"
    },
    {
      "children": [
        9
      ],
      "name": "polySurface3"
    },
    {
      "mesh": 2,
      "name": "polySurface3_lambert2_0"
    },
    {
      "children": [
        11
      ],
      "matrix": [
        1.0,
        0.0,
        0.0,
        0.0,
        0.0,
        1.0,
        0.0,
        0.0,
        0.0,
        0.0,
        1.0,
        0.0,
        0.0,
        0.0,
        8.673617379884035e-19,
        1.0
      ],
      "name": "polySurface4"
    },
    {
      "mesh": 3,
      "name": "polySurface4_lambert2_0"
    },
    {
      "children": [
        13
      ],
      "matrix": [
        1.0,
        0.0,
        0.0,
        0.0,
        0.0,
        1.0,
        0.0,
        0.0,
        0.0,
        0.0,
        1.0,
        0.0,
        0.0,
        0.0,
        8.673617379884035e-19,
        1.0
      ],
      "name": "polySurface5"
    },
    {
      "mesh": 4,
      "name": "polySurface5_lambert2_0"
    }
  ],
  "samplers": [
    {
      "magFilter": 9729,
      "minFilter": 9987,
      "wrapS": 10497,
      "wrapT": 10497
    }
  ],
  "scene": 0,
  "scenes": [
    {
      "name": "Sketchfab_Scene",
      "nodes": [
        0
      ]
    }
  ],
  "textures": [
    {
      "sampler": 0,
      "source": 0
    },
    {
      "sampler": 0,
      "source": 1
    },
    {
      "sampler": 0,
      "source": 2
    }
  ]
}
