{
  "accessors": [
    {
      "bufferView": 2,
      "componentType": 5126,
      "count": 65533,
      "max": [
        0.07265699654817581,
        0.043806999921798706,
        0.14390799403190613
      ],
      "min": [
        -0.07265699654817581,
        -0.010877000167965889,
        -0.004244999960064888
      ],
      "type": "VEC3"
    },
    {
      "bufferView": 2,
      "byteOffset": 786396,
      "componentType": 5126,
      "count": 65533,
      "max": [
        0.9974642992019653,
        0.9999027252197266,
        0.9995993971824646
      ],
      "min": [
        -0.9974642992019653,
        -0.9927206635475159,
        -0.9942644238471985
      ],
      "type": "VEC3"
    },
    {
      "bufferView": 1,
      "componentType": 5126,
      "count": 65533,
      "max": [
        1.0,
        0.5
      ],
      "min": [
        0.0,
        0.0
      ],
      "type": "VEC2"
    },
    {
      "bufferView": 0,
      "componentType": 5125,
      "count": 98301,
      "type": "SCALAR"
    },
    {
      "bufferView": 2,
      "byteOffset": 1572792,
      "componentType": 5126,
      "count": 65532,
      "max": [
        0.07237999886274338,
        0.04288800060749054,
        0.14042499661445618
      ],
      "min": [
        -0.0006719999946653843,
        -0.010877000167965889,
        -0.003877999959513545
      ],
      "type": "VEC3"
    },
    {
      "bufferView": 2,
      "byteOffset": 2359176,
      "componentType": 5126,
      "count": 65532,
      "max": [
        0.9993658065795898,
        0.9967492818832397,
        0.9978764653205872
      ],
      "min": [
        -0.9940486550331116,
        -0.9999946355819702,
        -0.9887274503707886
      ],
      "type": "VEC3"
    },
    {
      "bufferView": 1,
      "byteOffset": 524264,
      "componentType": 5126,
      "count": 65532,
      "max": [
        1.0,
        0.5
      ],
      "min": [
        0.0,
        0.0
      ],
      "type": "VEC2"
    },
    {
      "bufferView": 0,
      "byteOffset": 393204,
      "componentType": 5125,
      "count": 98304,
      "type": "SCALAR"
    },
    {
      "bufferView": 2,
      "byteOffset": 3145560,
      "componentType": 5126,
      "count": 65534,
      "max": [
        0.07073800265789032,
        0.04288800060749054,
        0.14042499661445618
      ],
      "min": [
        -0.07237999886274338,
        -0.010846000164747238,
        -0.0038509999867528677
      ],
      "type": "VEC3"
    },
    {
      "bufferView": 2,
      "byteOffset": 3931968,
      "componentType": 5126,
      "count": 65534,
      "max": [
        0.9814104437828064,
        0.9358699321746826,
        0.9115138649940491
      ],
      "min": [
        -0.9965998530387878,
        -0.9999946355819702,
        -0.9936462044715881
      ],
      "type": "VEC3"
    },
    {
      "bufferView": 1,
      "byteOffset": 1048520,
      "componentType": 5126,
      "count": 65534,
      "max": [
        0.9999759793281555,
        0.5
      ],
      "min": [
        0.0,
        0.0
      ],
      "type": "VEC2"
    },
    {
      "bufferView": 0,
      "byteOffset": 786420,
      "componentType": 5125,
      "count": 98316,
      "type": "SCALAR"
    },
    {
      "bufferView": 2,
      "byteOffset": 4718376,
      "componentType": 5126,
      "count": 65532,
      "max": [
        -0.0,
        0.04150800034403801,
        0.12239900231361389
      ],
      "min": [
        -0.07073800265789032,
        -0.010877000167965889,
        -0.003877999959513545
      ],
      "type": "VEC3"
    },
    {
      "bufferView": 2,
      "byteOffset": 5504760,
      "componentType": 5126,
      "count": 65532,
      "max": [
        0.9940486550331116,
        0.9967492818832397,
        0.9978764653205872
      ],
      "min": [
        -0.9993658065795898,
        -0.999976396560669,
        -0.9936462044715881
      ],
      "type": "VEC3"
    },
    {
      "bufferView": 1,
      "byteOffset": 1572792,
      "componentType": 5126,
      "count": 65532,
      "max": [
        0.9952800273895264,
        0.5
      ],
      "min": [
        0.003481999970972538,
        0.003536999924108386
      ],
      "type": "VEC2"
    },
    {
      "bufferView": 0,
      "byteOffset": 1179684,
      "componentType": 5125,
      "count": 98304,
      "type": "SCALAR"
    },
    {
      "bufferView": 2,
      "byteOffset": 6291144,
      "componentType": 5126,
      "count": 65534,
      "max": [
        0.06368099898099899,
        0.04260699823498726,
        0.14390799403190613
      ],
      "min": [
        -0.07034800201654434,
        -0.008821999654173851,
        -0.0036329999566078186
      ],
      "type": "VEC3"
    },
    {
      "bufferView": 2,
      "byteOffset": 7077552,
      "componentType": 5126,
      "count": 65534,
      "max": [
        0.9955591559410095,
        0.9990984797477722,
        0.9727694988250732
      ],
      "min": [
        -0.9955591559410095,
        -0.9907787442207336,
        -0.798884391784668
      ],
      "type": "VEC3"
    },
    {
      "bufferView": 1,
      "byteOffset": 2097048,
      "componentType": 5126,
      "count": 65534,
      "max": [
        0.9999759793281555,
        0.5
      ],
      "min": [
        0.0,
        0.0
      ],
      "type": "VEC2"
    },
    {
      "bufferView": 0,
      "byteOffset": 1572900,
      "componentType": 5125,
      "count": 98304,
      "type": "SCALAR"
    },
    {
      "bufferView": 2,
      "byteOffset": 7863960,
      "componentType": 5126,
      "count": 65532,
      "max": [
        0.0006680000224150717,
        0.043806999921798706,
        0.14021000266075134
      ],
      "min": [
        -0.0723399966955185,
        -0.00735800014808774,
        -0.003710000077262521
      ],
      "type": "VEC3"
    },
    {
      "bufferView": 2,
      "byteOffset": 8650344,
      "componentType": 5126,
      "count": 65532,
      "max": [
        0.9999092817306519,
        0.9999717473983765,
        0.937444806098938
      ],
      "min": [
        -0.9879187345504761,
        -0.9995905756950378,
        -0.7269231081008911
      ],
      "type": "VEC3"
    },
    {
      "bufferView": 1,
      "byteOffset": 2621320,
      "componentType": 5126,
      "count": 65532,
      "max": [
        1.0,
        0.5
      ],
      "min": [
        0.0,
        0.0
      ],
      "type": "VEC2"
    },
    {
      "bufferView": 0,
      "byteOffset": 1966116,
      "componentType": 5125,
      "count": 98298,
      "type": "SCALAR"
    },
    {
      "bufferView": 2,
      "byteOffset": 9436728,
      "componentType": 5126,
      "count": 65534,
      "max": [
        0.0589429996907711,
        0.04260699823498726,
        0.14296099543571472
      ],
      "min": [
        -0.06970500200986862,
        -0.009178999811410904,
        -0.0036329999566078186
      ],
      "type": "VEC3"
    },
    {
      "bufferView": 2,
      "byteOffset": 10223136,
      "componentType": 5126,
      "count": 65534,
      "max": [
        0.9687293171882629,
        0.9999974966049194,
        0.8655303120613098
      ],
      "min": [
        -0.894700288772583,
        -0.9921317100524902,
        -0.8191543817520142
      ],
      "type": "VEC3"
    },
    {
      "bufferView": 1,
      "byteOffset": 3145576,
      "componentType": 5126,
      "count": 65534,
      "max": [
        0.9952759742736816,
        0.5
      ],
      "min": [
        9.000000318337698e-06,
        0.0
      ],
      "type": "VEC2"
    },
    {
      "bufferView": 0,
      "byteOffset": 2359308,
      "componentType": 5125,
      "count": 98304,
      "type": "SCALAR"
    },
    {
      "bufferView": 2,
      "byteOffset": 11009544,
      "componentType": 5126,
      "count": 65534,
      "max": [
        0.0723399966955185,
        0.043806999921798706,
        0.14021000266075134
      ],
      "min": [
        -0.0,
        -0.00735800014808774,
        -0.003710000077262521
      ],
      "type": "VEC3"
    },
    {
      "bufferView": 2,
      "byteOffset": 11795952,
      "componentType": 5126,
      "count": 65534,
      "max": [
        0.9879229664802551,
        0.9999717473983765,
        0.937444806098938
      ],
      "min": [
        -0.9999092817306519,
        -0.9995848536491394,
        -0.7097981572151184
      ],
      "type": "VEC3"
    },
    {
      "bufferView": 1,
      "byteOffset": 3669848,
      "componentType": 5126,
      "count": 65534,
      "max": [
        0.9952800273895264,
        0.5
      ],
      "min": [
        0.0019340000580996275,
        0.0029440000653266907
      ],
      "type": "VEC2"
    },
    {
      "bufferView": 0,
      "byteOffset": 2752524,
      "componentType": 5125,
      "count": 98298,
      "type": "SCALAR"
    },
    {
      "bufferView": 2,
      "byteOffset": 12582360,
      "componentType": 5126,
      "count": 26627,
      "max": [
        0.06970500200986862,
        0.033135998994112015,
        0.14296099543571472
      ],
      "min": [
        0.0,
        -0.009178999811410904,
        0.008012999780476093
      ],
      "type": "VEC3"
    },
    {
      "bufferView": 2,
      "byteOffset": 12901884,
      "componentType": 5126,
      "count": 26627,
      "max": [
        0.42868533730506897,
        0.9999974966049194,
        0.7987708449363708
      ],
      "min": [
        -0.9687816500663757,
        -0.9921396374702454,
        -0.8191249966621399
      ],
      "type": "VEC3"
    },
    {
      "bufferView": 1,
      "byteOffset": 4194120,
      "componentType": 5126,
      "count": 26627,
      "max": [
        0.994763970375061,
        0.483705997467041
      ],
      "min": [
        0.0017310000257566571,
        0.00698000006377697
      ],
      "type": "VEC2"
    },
    {
      "bufferView": 0,
      "byteOffset": 3145716,
      "componentType": 5125,
      "count": 39939,
      "type": "SCALAR"
    }
  ],
  "asset": {
    "extras": {
      "author": "gagikmlkn (https://sketchfab.com/gagikmlkn)",
      "license": "CC-BY-4.0 (http://creativecommons.org/licenses/by/4.0/)",
      "source": "https://sketchfab.com/3d-models/catwoman-mask-a9c272f6ca1c4eeabcf6f0fc3ee0d5c1",
      "title": "Catwoman Mask"
    },
    "generator": "Sketchfab-12.68.0",
    "version": "2.0"
  },
  "bufferViews": [
    {
      "buffer": 0,
      "byteLength": 3305472,
      "name": "floatBufferViews",
      "target": 34963
    },
    {
      "buffer": 0,
      "byteLength": 4407136,
      "byteOffset": 3305472,
      "byteStride": 8,
      "name": "floatBufferViews",
      "target": 34962
    },
    {
      "buffer": 0,
      "byteLength": 13221408,
      "byteOffset": 7712608,
      "byteStride": 12,
      "name": "floatBufferViews",
      "target": 34962
    }
  ],
  "buffers": [
    {
      "byteLength": 20934016,
      "uri": "scene.bin"
    }
  ],
  "materials": [
    {
      "doubleSided": true,
      "name": "Material",
      "pbrMetallicRoughness": {
        "baseColorFactor": [
          0.021807634948988765,
          0.02112537746428847,
          0.02112537746428847,
          1.0
        ],
        "metallicFactor": 0.6401282308520146,
        "roughnessFactor": 0.3294709033313269
      }
    }
  ],
  "meshes": [
    {
      "name": "Object_0",
      "primitives": [
        {
          "attributes": {
            "NORMAL": 1,
            "POSITION": 0,
            "TEXCOORD_0": 2
          },
          "indices": 3,
          "material": 0,
          "mode": 4
        }
      ]
    },
    {
      "name": "Object_1",
      "primitives": [
        {
          "attributes": {
            "NORMAL": 5,
            "POSITION": 4,
            "TEXCOORD_0": 6
          },
          "indices": 7,
          "material": 0,
          "mode": 4
        }
      ]
    },
    {
      "name": "Object_2",
      "primitives": [
        {
          "attributes": {
            "NORMAL": 9,
            "POSITION": 8,
            "TEXCOORD_0": 10
          },
          "indices": 11,
          "material": 0,
          "mode": 4
        }
      ]
    },
    {
      "name": "Object_3",
      "primitives": [
        {
          "attributes": {
            "NORMAL": 13,
            "POSITION": 12,
            "TEXCOORD_0": 14
          },
          "indices": 15,
          "material": 0,
          "mode": 4
        }
      ]
    },
    {
      "name": "Object_4",
      "primitives": [
        {
          "attributes": {
            "NORMAL": 17,
            "POSITION": 16,
            "TEXCOORD_0": 18
          },
          "indices": 19,
          "material": 0,
          "mode": 4
        }
      ]
    },
    {
      "name": "Object_5",
      "primitives": [
        {
          "attributes": {
            "NORMAL": 21,
            "POSITION": 20,
            "TEXCOORD_0": 22
          },
          "indices": 23,
          "material": 0,
          "mode": 4
        }
      ]
    },
    {
      "name": "Object_6",
      "primitives": [
        {
          "attributes": {
            "NORMAL": 25,
            "POSITION": 24,
            "TEXCOORD_0": 26
          },
          "indices": 27,
          "material": 0,
          "mode": 4
        }
      ]
    },
    {
      "name": "Object_7",
      "primitives": [
        {
          "attributes": {
            "NORMAL": 29,
            "POSITION": 28,
            "TEXCOORD_0": 30
          },
          "indices": 31,
          "material": 0,
          "mode": 4
        }
      ]
    },
    {
      "name": "Object_8",
      "primitives": [
        {
          "attributes": {
            "NORMAL": 33,
            "POSITION": 32,
            "TEXCOORD_0": 34
          },
          "indices": 35,
          "material": 0,
          "mode": 4
        }
      ]
    }
  ],
  "nodes": [
    {
      "children": [
        1
      ],
      "matrix": [
        20.511015888237694,
        -0.1066311895868921,
        1.21716196769347e-15,
        0.0,
        1.2710532772521926e-15,
        1.0363089216668093e-14,
        -20.511293411254883,
        0.0,
        0.1066311895868921,
        20.511015888237694,
        1.0369556863335498e-14,
        0.0,
        -0.00036302991793490946,
        9.439310133529943e-07,
        -2.081647211693275e-17,
        1.0
      ],
      "name": "Sketchfab_model"
    },
    {
      "children": [
        2,
        3,
        4,
        5,
        6,
        7,
        8,
        9,
        10
      ],
      "name": "catwoman_mask 3d.obj.cleaner.materialmerger.gles"
    },
    {
      "mesh": 0,
      "name": "Object_2"
    },
    {
      "mesh": 1,
      "name": "Object_3"
    },
    {
      "mesh": 2,
      "name": "Object_4"
    },
    {
      "mesh": 3,
      "name": "Object_5"
    },
    {
      "mesh": 4,
      "name": "Object_6"
    },
    {
      "mesh": 5,
      "name": "Object_7"
    },
    {
      "mesh": 6,
      "name": "Object_8"
    },
    {
      "mesh": 7,
      "name": "Object_9"
    },
    {
      "mesh": 8,
      "name": "Object_10"
    }
  ],
  "scene": 0,
  "scenes": [
    {
      "name": "Sketchfab_Scene",
      "nodes": [
        0
      ]
    }
  ]
}
