{
  "accessors": [
    {
      "bufferView": 2,
      "componentType": 5126,
      "count": 1513,
      "max": [
        -0.09489600360393524,
        1.069409966468811,
        1.5508970022201538
      ],
      "min": [
        -1.205867052078247,
        -1.069409966468811,
        -1.422292947769165
      ],
      "type": "VEC3"
    },
    {
      "bufferView": 2,
      "byteOffset": 18156,
      "componentType": 5126,
      "count": 1513,
      "max": [
        1.0,
        0.9999988079071045,
        0.9962729215621948
      ],
      "min": [
        -0.10770466178655624,
        -0.9999988079071045,
        -0.9955699443817139
      ],
      "type": "VEC3"
    },
    {
      "bufferView": 3,
      "componentType": 5126,
      "count": 1513,
      "max": [
        0.9961444735527039,
        0.8414140939712524,
        0.9999949932098389,
        1.0
      ],
      "min": [
        -0.9958651065826416,
        -0.8258469104766846,
        -0.19366523623466492,
        1.0
      ],
      "type": "VEC4"
    },
    {
      "bufferView": 1,
      "componentType": 5126,
      "count": 1513,
      "max": [
        0.4717459976673126,
        0.6303660273551941
      ],
      "min": [
        0.00019700000120792538,
        0.00019700000120792538
      ],
      "type": "VEC2"
    },
    {
      "bufferView": 0,
      "componentType": 5125,
      "count": 2376,
      "type": "SCALAR"
    },
    {
      "bufferView": 2,
      "byteOffset": 36312,
      "componentType": 5126,
      "count": 1192,
      "max": [
        -0.2822200059890747,
        1.069409966468811,
        1.5508970022201538
      ],
      "min": [
        -1.205867052078247,
        -1.069409966468811,
        -1.4075419902801514
      ],
      "type": "VEC3"
    },
    {
      "bufferView": 2,
      "byteOffset": 50616,
      "componentType": 5126,
      "count": 1192,
      "max": [
        0.02130066230893135,
        0.999531090259552,
        0.9237642884254456
      ],
      "min": [
        -1.0,
        -0.999531090259552,
        -0.5794249773025513
      ],
      "type": "VEC3"
    },
    {
      "bufferView": 3,
      "byteOffset": 24208,
      "componentType": 5126,
      "count": 1192,
      "max": [
        0.4248031973838806,
        0.6503056287765503,
        -0.3560727536678314,
        1.0
      ],
      "min": [
        -0.9343025088310242,
        -0.6501607298851013,
        -0.9999990463256836,
        1.0
      ],
      "type": "VEC4"
    },
    {
      "bufferView": 1,
      "byteOffset": 12104,
      "componentType": 5126,
      "count": 1192,
      "max": [
        0.8683879971504211,
        0.5627819895744324
      ],
      "min": [
        0.47214001417160034,
        0.00019700000120792538
      ],
      "type": "VEC2"
    },
    {
      "bufferView": 0,
      "byteOffset": 9504,
      "componentType": 5125,
      "count": 1812,
      "type": "SCALAR"
    },
    {
      "bufferView": 2,
      "byteOffset": 64920,
      "componentType": 5126,
      "count": 286,
      "max": [
        0.012485000304877758,
        0.1977660059928894,
        1.6086560487747192
      ],
      "min": [
        -0.3109790086746216,
        -0.1977660059928894,
        -0.2459779977798462
      ],
      "type": "VEC3"
    },
    {
      "bufferView": 2,
      "byteOffset": 68352,
      "componentType": 5126,
      "count": 286,
      "max": [
        0.9999034404754639,
        0.9785890579223633,
        0.967284083366394
      ],
      "min": [
        -0.9999920129776001,
        -0.9785890579223633,
        -0.908774197101593
      ],
      "type": "VEC3"
    },
    {
      "bufferView": 3,
      "byteOffset": 43280,
      "componentType": 5126,
      "count": 286,
      "max": [
        0.359809935092926,
        0.2393316626548767,
        0.25369584560394287,
        1.0
      ],
      "min": [
        -0.9764582514762878,
        -0.23933154344558716,
        -0.9999920725822449,
        1.0
      ],
      "type": "VEC4"
    },
    {
      "bufferView": 1,
      "byteOffset": 21640,
      "componentType": 5126,
      "count": 286,
      "max": [
        0.9998030066490173,
        0.833158016204834
      ],
      "min": [
        0.00019700000120792538,
        0.00019700000120792538
      ],
      "type": "VEC2"
    },
    {
      "bufferView": 0,
      "byteOffset": 16752,
      "componentType": 5125,
      "count": 528,
      "type": "SCALAR"
    }
  ],
  "asset": {
    "extras": {
      "author": "fezsantos (https://sketchfab.com/fezsantos)",
      "license": "CC-BY-4.0 (http://creativecommons.org/licenses/by/4.0/)",
      "source": "https://sketchfab.com/3d-models/the-wooden-mask-ec99b1d957624aa19da8a78524c65ecd",
      "title": "The Wooden Mask"
    },
    "generator": "Sketchfab-12.68.0",
    "version": "2.0"
  },
  "bufferViews": [
    {
      "buffer": 0,
      "byteLength": 18864,
      "name": "floatBufferViews",
      "target": 34963
    },
    {
      "buffer": 0,
      "byteLength": 23928,
      "byteOffset": 18864,
      "byteStride": 8,
      "name": "floatBufferViews",
      "target": 34962
    },
    {
      "buffer": 0,
      "byteLength": 71784,
      "byteOffset": 42792,
      "byteStride": 12,
      "name": "floatBufferViews",
      "target": 34962
    },
    {
      "buffer": 0,
      "byteLength": 47856,
      "byteOffset": 114576,
      "byteStride": 16,
      "name": "floatBufferViews",
      "target": 34962
    }
  ],
  "buffers": [
    {
      "byteLength": 162432,
      "uri": "scene.bin"
    }
  ],
  "extensionsRequired": [
    "KHR_materials_pbrSpecularGlossiness"
  ],
  "extensionsUsed": [
    "KHR_materials_pbrSpecularGlossiness"
  ],
  "images": [
    {
      "uri": "textures/MADEIRA_diffuse.jpeg"
    },
    {
      "uri": "textures/MADEIRA_specularGlossiness.png"
    },
    {
      "uri": "textures/MADEIRA_normal.png"
    },
    {
      "uri": "textures/MADEIRA_occlusion.png"
    },
    {
      "uri": "textures/MAGICA_diffuse.jpeg"
    },
    {
      "uri": "textures/MAGICA_specularGlossiness.png"
    },
    {
      "uri": "textures/MAGICA_normal.png"
    },
    {
      "uri": "textures/MAGICA_occlusion.png"
    },
    {
      "uri": "textures/METAL_diffuse.jpeg"
    },
    {
      "uri": "textures/METAL_specularGlossiness.png"
    },
    {
      "uri": "textures/METAL_normal.png"
    },
    {
      "uri": "textures/METAL_occlusion.png"
    }
  ],
  "materials": [
    {
      "doubleSided": true,
      "extensions": {
        "KHR_materials_pbrSpecularGlossiness": {
          "diffuseFactor": [
            1.0,
            1.0,
            1.0,
            1.0
          ],
          "diffuseTexture": {
            "index": 0
          },
          "glossinessFactor": 1.0,
          "specularFactor": [
            1.0,
            1.0,
            1.0
          ],
          "specularGlossinessTexture": {
            "index": 1
          }
        }
      },
      "name": "MADEIRA",
      "normalTexture": {
        "index": 2
      },
      "occlusionTexture": {
        "index": 3
      }
    },
    {
      "doubleSided": true,
      "extensions": {
        "KHR_materials_pbrSpecularGlossiness": {
          "diffuseFactor": [
            1.0,
            1.0,
            1.0,
            1.0
          ],
          "diffuseTexture": {
            "index": 4
          },
          "glossinessFactor": 1.0,
          "specularFactor": [
            0.0,
            0.0,
            0.0
          ],
          "specularGlossinessTexture": {
            "index": 5
          }
        }
      },
      "name": "MAGICA",
      "normalTexture": {
        "index": 6
      },
      "occlusionTexture": {
        "index": 7
      }
    },
    {
      "doubleSided": true,
      "extensions": {
        "KHR_materials_pbrSpecularGlossiness": {
          "diffuseFactor": [
            1.0,
            1.0,
            1.0,
            1.0
          ],
          "diffuseTexture": {
            "index": 8
          },
          "glossinessFactor": 1.0,
          "specularFactor": [
            1.0,
            1.0,
            1.0
          ],
          "specularGlossinessTexture": {
            "index": 9
          }
        }
      },
      "name": "METAL",
      "normalTexture": {
        "index": 10
      },
      "occlusionTexture": {
        "index": 11
      }
    }
  ],
  "meshes": [
    {
      "name": "Object_0",
      "primitives": [
        {
          "attributes": {
            "NORMAL": 1,
            "POSITION": 0,
            "TANGENT": 2,
            "TEXCOORD_0": 3
          },
          "indices": 4,
          "material": 0,
          "mode": 4
        }
      ]
    },
    {
      "name": "Object_1",
      "primitives": [
        {
          "attributes": {
            "NORMAL": 6,
            "POSITION": 5,
            "TANGENT": 7,
            "TEXCOORD_0": 8
          },
          "indices": 9,
          "material": 1,
          "mode": 4
        }
      ]
    },
    {
      "name": "Object_2",
      "primitives": [
        {
          "attributes": {
            "NORMAL": 11,
            "POSITION": 10,
            "TANGENT": 12,
            "TEXCOORD_0": 13
          },
          "indices": 14,
          "material": 2,
          "mode": 4
        }
      ]
    }
  ],
  "nodes": [
    {
      "children": [
        1
      ],
      "matrix": [
        1.0,
        0.0,
        0.0,
        0.0,
        0.0,
        2.220446049250313e-16,
        -1.0,
        0.0,
        0.0,
        1.0,
        2.220446049250313e-16,
        0.0,
        0.0,
        0.0,
        0.0,
        1.0
      ],
      "name": "Sketchfab_model"
    },
    {
      "children": [
        2,
        3,
        4
      ],
      "name": "The Mask.obj.cleaner.materialmerger.gles"
    },
    {
      "mesh": 0,
      "name": "Object_2"
    },
    {
      "mesh": 1,
      "name": "Object_3"
    },
    {
      "mesh": 2,
      "name": "Object_4"
    }
  ],
  "samplers": [
    {
      "magFilter": 9729,
      "minFilter": 9987,
      "wrapS": 10497,
      "wrapT": 10497
    }
  ],
  "scene": 0,
  "scenes": [
    {
      "name": "Sketchfab_Scene",
      "nodes": [
        0
      ]
    }
  ],
  "textures": [
    {
      "sampler": 0,
      "source": 0
    },
    {
      "sampler": 0,
      "source": 1
    },
    {
      "sampler": 0,
      "source": 2
    },
    {
      "sampler": 0,
      "source": 3
    },
    {
      "sampler": 0,
      "source": 4
    },
    {
      "sampler": 0,
      "source": 5
    },
    {
      "sampler": 0,
      "source": 6
    },
    {
      "sampler": 0,
      "source": 7
    },
    {
      "sampler": 0,
      "source": 8
    },
    {
      "sampler": 0,
      "source": 9
    },
    {
      "sampler": 0,
      "source": 10
    },
    {
      "sampler": 0,
      "source": 11
    }
  ]
}
